<svg xmlns="http://www.w3.org/2000/svg" width="200" height="200" viewBox="0 0 200 200">
  <!-- 背景 -->
  <rect width="200" height="200" fill="#ffffff"/>
  <!-- 二维码网格 -->
  <g fill="#000000" opacity="0.8">
    <!-- 左上角定位图案 -->
    <rect x="20" y="20" width="60" height="60"/>
    <rect x="30" y="30" width="40" height="40" fill="#ffffff"/>
    <rect x="35" y="35" width="30" height="30"/>
    <!-- 右上角定位图案 -->
    <rect x="120" y="20" width="60" height="60"/>
    <rect x="130" y="30" width="40" height="40" fill="#ffffff"/>
    <rect x="135" y="35" width="30" height="30"/>
    <!-- 左下角定位图案 -->
    <rect x="20" y="120" width="60" height="60"/>
    <rect x="30" y="130" width="40" height="40" fill="#ffffff"/>
    <rect x="35" y="135" width="30" height="30"/>
    <!-- 随机点 -->
    <rect x="80" y="20" width="20" height="20"/>
    <rect x="100" y="40" width="20" height="20"/>
    <rect x="80" y="60" width="20" height="20"/>
    <rect x="120" y="80" width="20" height="20"/>
    <rect x="140" y="100" width="20" height="20"/>
    <rect x="100" y="120" width="20" height="20"/>
    <rect x="80" y="140" width="20" height="20"/>
    <rect x="40" y="100" width="20" height="20"/>
    <rect x="60" y="80" width="20" height="20"/>
    <rect x="100" y="160" width="20" height="20"/>
    <rect x="140" y="160" width="20" height="20"/>
    <rect x="40" y="60" width="20" height="20"/>
    <rect x="20" y="100" width="20" height="20"/>
  </g>
  <!-- 微信图标 -->
  <path d="M100,80 C111.045695,80 120,71.045695 120,60 C120,48.954305 111.045695,40 100,40 C88.954305,40 80,48.954305 80,60 C80,71.045695 88.954305,80 100,80 Z" fill="#07C160"/>
  <path d="M100,100 C116.568542,100 130,86.5685425 130,70 C130,53.4314575 116.568542,40 100,40 C83.4314575,40 70,53.4314575 70,70 C70,86.5685425 83.4314575,100 100,100 Z M100,90 C89.4957321,90 81,81.5042679 81,71 C81,60.4957321 89.4957321,52 100,52 C110.504268,52 119,60.4957321 119,71 C119,81.5042679 110.504268,90 100,90 Z M88,70 C88,76.627417 93.372583,82 100,82 C106.627417,82 112,76.627417 112,70 C112,63.372583 106.627417,58 100,58 C93.372583,58 88,63.372583 88,70 Z" fill="#07C160"/>
  <path d="M100,120 C94.4771525,120 90,124.477153 90,130 C90,135.522847 94.4771525,140 100,140 C105.522847,140 110,135.522847 110,130 C110,124.477153 105.522847,120 100,120 Z" fill="#07C160"/>
  <!-- 文字提示 -->
  <text x="100" y="185" font-family="Arial, sans-serif" font-size="12" text-anchor="middle" fill="#333333">扫描添加微信客服</text>
</svg>